<svg version="1.1" xmlns="http://www.w3.org/2000/svg" style="display: block;" viewBox="0 0 2048 2048" width="1024" height="1024" preserveAspectRatio="none">
<path transform="translate(0,0)" fill="rgb(225,174,24)" d="M 1117.29 634.98 C 1121.21 621.071 1126.83 585.028 1125.84 571.024 C 1124.97 558.654 1120.68 546.388 1122.03 533.929 C 1123.13 523.835 1128.34 515.971 1136.21 509.762 C 1150.75 498.295 1195.38 482.627 1214.22 479.076 C 1222.13 477.587 1230.6 477.245 1238.6 478.17 C 1250.86 479.589 1262.7 484.374 1270.43 494.398 C 1275.16 500.547 1277.85 507.813 1278.82 515.48 C 1283.64 553.62 1261.64 613.665 1257.46 653.585 L 1257.32 655.033 C 1288.44 642.711 1331.33 632.566 1361.8 651.555 C 1395.97 672.848 1387.07 740.529 1396.43 776.247 L 1396.8 777.648 C 1403.74 762.051 1410.06 746.189 1415.76 730.099 C 1436.34 673.669 1437.95 638.345 1508.93 636.991 C 1538.85 636.42 1550.06 642.014 1571.49 661.767 C 1577.84 651.988 1583.25 641.534 1586.02 630.192 C 1582.79 623.602 1576.61 615.211 1574.43 608.725 C 1561.64 570.795 1575.03 522.675 1615.29 508.089 C 1636.32 500.469 1662.14 498.924 1682.41 507.818 C 1698.79 514.941 1711.63 528.357 1718.01 545.044 C 1730.65 577.614 1719.28 612.695 1703.55 641.861 C 1698.82 650.633 1692.76 659.571 1688.92 668.589 L 1688.4 669.833 C 1728.13 642.226 1750.95 629.918 1803.94 629.115 C 1847.58 628.454 1933.96 646.016 1938.33 702.765 C 1939.61 719.461 1914.32 748.149 1903.19 760.912 C 1898.67 766.095 1885.62 773.594 1878.01 773.323 C 1874.55 775.956 1874.36 775.162 1873.67 778.38 L 1874.39 780.28 C 1887.93 784.355 1906.28 806.328 1913.13 818.585 C 1929.15 847.281 1928.89 880.352 1919.63 911.211 C 1890.92 1006.86 1776.1 1020.81 1693.8 995.008 C 1664.32 985.763 1602.91 956.614 1618.54 916.583 C 1626.99 894.963 1646.47 866.414 1667.36 854.762 C 1678.3 848.855 1688.84 852.743 1700.16 855.138 L 1702.32 854.33 L 1702.05 851.893 C 1680.76 835.704 1661.05 817.309 1654.33 790.553 C 1645.63 755.968 1652.99 723.07 1670.13 692.804 C 1651.21 703.935 1637.02 720.555 1611.3 720.551 C 1596.02 720.549 1585.99 713.67 1575.82 703.214 C 1559.34 743.289 1543.51 782.93 1525.36 822.352 C 1510.71 854.149 1494.32 885.203 1478.92 916.654 C 1461.67 951.904 1445.59 988.162 1424.82 1021.54 C 1391.42 1075.22 1354.57 1111.87 1291.31 1126.49 C 1263.88 1132.82 1230.25 1131.7 1205.91 1116.38 C 1194.4 1109.13 1188.57 1102.05 1185.64 1088.57 C 1180.62 1065.52 1189.32 1038.07 1202.04 1018.82 C 1222.64 987.627 1243.78 1004.24 1267.17 998.604 C 1276.79 996.283 1289.15 984.995 1293.96 976.502 C 1296.09 972.744 1295.73 969.439 1295 965.354 C 1293.38 956.221 1289.79 947.185 1287.25 938.251 C 1283.52 925.109 1280.38 911.527 1277.72 898.123 C 1266.71 842.646 1259.57 786.05 1245.07 731.259 C 1238.51 764.904 1232.78 798.706 1227.89 832.633 C 1225.99 845.27 1221.78 870.613 1221.92 882.42 C 1244.03 889.495 1260.01 900.151 1259.98 925.592 C 1259.94 971.622 1201.55 1002.62 1160.97 1002.33 C 1133.33 1002.13 1120.11 994.443 1101.52 975.946 C 1097.58 978.274 1092.74 981.38 1089.17 984.192 C 1049.46 1015.56 987.215 1022 945.328 991.169 C 935.384 983.85 922.997 967.299 915.362 956.81 C 906.344 964.745 893.765 976.116 883.528 982.195 C 838.623 1008.14 783.367 1023.41 731.912 1011.53 C 630.914 988.21 606.942 904.058 628.736 811.796 C 601.71 806.615 597.423 792.565 579.248 820.17 C 548.238 866.971 554.525 923.718 536.86 975.428 C 528.168 1000.87 499.007 1006.79 497.622 1011.34 C 506.148 1013.38 534.228 1011.2 543.849 1010.53 C 578.355 1008.2 612.933 1005.19 647.532 1004.92 C 667.672 1004.77 685.445 1003.59 702.756 1015.84 C 713.163 1023.15 720.024 1034.5 721.671 1047.11 C 724.777 1070.09 712.411 1096.77 699.209 1114.93 C 671.023 1153.7 622.03 1139.3 585.287 1145.11 L 583.855 1145.34 L 541.971 1378.51 C 539.901 1389.56 537.526 1400.88 536.195 1411.97 C 533.085 1437.87 528.801 1472.82 506.683 1490.55 C 474.687 1516.2 371.807 1542.05 374.371 1472.27 C 375.359 1445.4 385.303 1416.73 389.081 1389.93 C 401.688 1309.43 422.545 1230 432.926 1149.24 C 398.874 1143.81 349.276 1171.73 321.72 1145.6 C 292.369 1117.76 320.19 1064.32 342.751 1040.8 C 362.957 1019.74 386.966 1016.72 414.712 1016.31 C 408.306 1009.68 398.713 1001.1 397.155 992.118 C 394.661 977.745 400.014 959.687 402.429 945.652 C 409.115 906.331 420.041 867.831 425.725 828.318 C 427.933 812.972 434.351 791.69 429.997 776.903 L 429.333 777.016 C 428.594 787.201 418.668 816.451 412.459 825.363 C 408.383 831.213 398.933 837.348 391.966 839.206 C 358.805 848.045 313.368 843.792 280.402 848.742 L 279.389 856.602 C 276.079 881.899 272.191 898.895 267.274 923.932 C 261.311 957.908 259.952 998.037 229.731 1020.92 C 199.819 1043.19 100.289 1070.88 102.551 1006.33 C 103.139 993.744 106.836 981.199 109.837 968.984 C 119.674 929.034 125.704 888.373 133.938 848.102 C 136.142 837.327 127.546 832.54 121.982 824.381 C 115.608 815.033 114.691 806.067 117.476 795.259 C 121.307 780.399 135.794 773.253 142.194 760.069 C 152.295 732.177 157.282 693.016 162.089 663.55 C 154.578 655.486 142.275 651.052 132.987 644.888 C 107.536 627.333 109.959 598.25 125.696 575.326 C 149.897 538.782 186.592 541.479 224.99 536.892 C 265.565 532.045 305.752 529.641 346.543 526.406 C 384.997 523.357 423.078 516.46 461.765 516.25 C 540.6 515.824 511.633 629.53 459.547 646.249 C 435.544 653.828 404.83 652.18 379.521 654.271 C 355.456 656.26 330.322 656.85 306.289 660.223 C 305.109 678.665 302.59 696.997 298.751 715.074 C 338.247 714.597 380.307 699.464 417.453 712.134 C 423.569 698.574 428.972 690.372 442.017 682.033 C 467.74 665.59 506.991 655.721 537.266 661.818 C 551.784 664.741 557.308 672.613 564.435 683.82 C 583.492 664.856 607.28 653.034 633.958 651.482 C 652.5 650.403 676.864 658.828 683.452 677.301 C 684.775 681.01 689.637 691.712 692.2 694.056 C 697.429 691.957 714.162 677.215 720.735 672.635 C 764.306 642.277 828.243 630.405 878.355 649.652 C 911.78 662.49 929.331 686.866 937.106 720.59 C 937.547 722.5 939.329 724.06 941.147 724.709 C 945.552 721.206 949.522 714.236 953.366 709.444 C 958.503 703.168 964.042 697.231 969.946 691.671 C 1012.68 650.782 1058.45 633.695 1117.29 634.98 z M 1048.28 895.844 C 1093.49 887.194 1125.43 789.276 1121.75 748.053 C 1120.57 734.742 1109.98 732.877 1099.01 734.142 C 1047.55 746.377 1016.58 830.281 1025.29 877.812 C 1027.51 889.936 1036.17 896.629 1048.28 895.844 z M 901.698 825.517 C 898.731 829.076 896.25 831.895 893.023 835.217 C 889.477 838.869 872.262 849.735 872.328 853.494 L 878.337 853.056 C 885.273 852.917 891.989 854.39 898.67 856.233 C 899.642 851.026 904.578 829.11 902.912 825.816 L 901.698 825.517 z M 794.019 886.658 L 795.283 889.318 C 797.545 889.168 803.25 889.006 805.251 888.718 C 820.092 886.579 851.168 870.946 860.078 860.075 C 850.858 863.315 841.418 868.883 832.147 872.555 C 819.504 877.563 806.748 881.842 794.019 886.658 z"/>
<path transform="translate(0,0)" fill="rgb(250,206,46)" d="M 1702.05 851.893 C 1703.02 851.7 1703.99 851.507 1704.95 851.313 C 1716.37 857.516 1742.53 871.792 1752.17 878.29 C 1754.14 879.624 1756.09 881 1758 882.418 C 1743.32 879.855 1730.38 875.188 1717.16 868.263 C 1712.99 866.074 1700.42 860.531 1698.28 857.342 C 1699.05 855.502 1698.44 856.247 1700.16 855.138 L 1702.32 854.33 L 1702.05 851.893 z"/>
<path transform="translate(0,0)" fill="rgb(250,206,46)" d="M 1874.39 780.28 L 1872.07 780.524 C 1862.9 775.552 1821.49 755.938 1816.63 751.619 C 1822.63 750.806 1854.86 767.591 1861.06 770.217 C 1865.68 772.174 1873.63 770.221 1878.01 773.323 C 1874.55 775.956 1874.36 775.162 1873.67 778.38 L 1874.39 780.28 z"/>
<path transform="translate(0,0)" fill="rgb(250,206,46)" d="M 1222.35 501.465 C 1230.77 501.039 1234 500.843 1242.01 504.239 C 1246.84 506.282 1255.11 515.325 1255.31 519.561 C 1256.58 546.403 1247.49 579.973 1243.18 606.24 C 1232.13 673.593 1219.61 740.009 1210.23 807.519 C 1207.03 829.47 1203.29 852.066 1201.22 874.039 C 1198.28 896.93 1209.53 900.605 1227.36 908.574 C 1239.04 913.792 1237.22 934.525 1231.22 943.784 C 1210.02 977.114 1154.52 997 1122.89 966.901 C 1114.56 958.977 1113.39 952.397 1101.92 945.03 C 1076.81 966.223 1057.83 983.318 1023.94 988.672 C 954.365 996.05 920.015 943.552 919.575 879.01 C 919.026 798.634 950.905 722.028 1022.18 680.226 C 1062.04 656.854 1086.92 656.372 1132.01 656.159 C 1140.14 637.71 1147.59 589.221 1148.28 568.111 C 1148.58 559.085 1145.5 546.912 1146.33 534.702 L 1146.45 533.051 C 1151.49 526.097 1154.66 523.385 1162.68 520.086 C 1181.5 512.336 1202.3 504.553 1222.35 501.465 z M 1048.28 895.844 C 1093.49 887.194 1125.43 789.276 1121.75 748.053 C 1120.57 734.742 1109.98 732.877 1099.01 734.142 C 1047.55 746.377 1016.58 830.281 1025.29 877.812 C 1027.51 889.936 1036.17 896.629 1048.28 895.844 z"/>
<path transform="translate(0,0)" fill="rgb(225,174,24)" d="M 1099.01 734.142 C 1109.98 732.877 1120.57 734.742 1121.75 748.053 C 1125.43 789.276 1093.49 887.194 1048.28 895.844 C 1036.17 896.629 1027.51 889.936 1025.29 877.812 C 1016.58 830.281 1047.55 746.377 1099.01 734.142 z M 1047.3 876.218 C 1078.3 862.023 1101.33 789.497 1102.1 757.87 L 1101.06 756.104 L 1098.97 755.809 C 1061.84 774.414 1040.2 835.196 1045.5 874.469 C 1045.58 875.07 1046.99 875.98 1047.3 876.218 z"/>
<path transform="translate(0,0)" fill="rgb(250,206,46)" d="M 433.688 540.436 C 449.845 539.591 481.73 536.028 485.625 559.245 C 489.257 580.892 469.979 620.078 448.978 627.97 C 431.807 633.474 412.128 631.341 394.509 632.919 C 360.884 635.932 322.198 634.74 289.323 641.345 C 286.329 656.6 273.748 719.879 275.61 732.039 C 275.815 733.377 276.249 735.119 277.607 735.88 C 289.54 742.565 387.957 720.071 403.065 732.487 C 406.888 735.63 408.527 741.022 409.085 745.758 C 410.978 761.829 402.977 799.398 392.667 812.058 C 388.795 816.814 383.34 820.663 377.409 822.358 C 367.457 825.203 354.005 824.489 343.507 824.977 C 317.364 826.193 290.666 826.415 264.701 829.665 C 257.732 845.098 256.585 859.645 253.356 875.365 C 246.694 907.801 242.395 957.545 229.042 986.796 C 210.027 1013.22 168.781 1027.22 137.779 1017.99 C 133.936 1014.51 129.986 1010.69 129.47 1005.28 C 128.446 994.532 131.281 980.715 133.09 970.086 C 138.219 941.612 143.608 913.186 149.258 884.81 C 151.957 870.841 155.665 853.695 156.771 839.039 C 157.601 828.048 143.785 820.29 140.463 807.062 C 137.467 791.193 156.539 782.407 162.92 770.116 C 166.052 763.002 168.82 752.616 169.587 744.785 C 171.743 722.801 189.574 668.399 180.319 650.576 C 170.404 631.48 143.782 633.596 136.59 606.653 C 140.991 590.487 154.801 571.492 172.044 567.723 C 201.578 561.266 233.515 559.562 263.653 556.622 C 320.284 551.097 376.946 544.445 433.688 540.436 z"/>
<path transform="translate(0,0)" fill="rgb(250,206,46)" d="M 1503.93 659.457 C 1505.31 659.327 1506.69 659.252 1508.06 659.234 C 1577.68 657.737 1548.67 711.63 1532.46 749.113 C 1521.87 773.802 1510.75 798.257 1499.09 822.46 C 1466.77 890.939 1433.36 962.668 1393.06 1026.62 C 1362.73 1074.77 1311.87 1114.98 1252.07 1108.68 C 1209.35 1105.01 1194.8 1076.29 1215.45 1038.82 C 1235.02 1003.3 1256.76 1033.45 1289.39 1009.91 C 1297.84 1003.02 1305.26 994.956 1311.41 985.962 C 1323.42 968.351 1316.63 956.198 1310.22 938.047 C 1307.22 929.576 1304.41 921.426 1302.59 912.621 L 1260.94 703.152 C 1259.68 696.481 1259.65 685.651 1264.42 680.466 C 1283.42 661.468 1327.06 656.365 1349.05 671.346 C 1374.18 688.467 1374.28 827.904 1386.75 837.661 C 1398.63 834.864 1431.1 748.025 1436.77 734.39 C 1443.66 717.808 1449.54 692.701 1459.81 677.45 C 1469.38 663.247 1488.46 661.58 1503.93 659.457 z"/>
<path transform="translate(0,0)" fill="rgb(250,206,46)" d="M 616.282 1027.45 C 667.237 1025.71 720.307 1018.81 686.575 1092.17 C 664.685 1140.61 605.756 1113.75 566.718 1126.9 C 563.951 1127.84 555.394 1184.13 553.998 1191.54 C 539.623 1267.86 527.366 1344.58 513.097 1420.92 C 510.966 1432.32 508.728 1444 504.583 1454.85 C 490.396 1481.88 453.198 1492.75 424.562 1491.19 C 396.152 1489.65 397.234 1468.2 400.004 1446.78 L 435.129 1256.98 C 438.177 1240.34 460.178 1144.87 450.562 1131.69 C 439.414 1116.41 375.151 1134.99 356.695 1133.39 C 345.576 1132.42 340.525 1129.04 332.827 1119.71 C 328.208 1095.35 348.963 1063.4 368.173 1049.82 C 390.488 1034.06 433.76 1036.36 460.673 1034.7 C 512.459 1031.52 564.553 1030.93 616.282 1027.45 z"/>
<path transform="translate(0,0)" fill="rgb(250,206,46)" d="M 811.582 663.443 C 879.126 654.272 933.039 701.874 910.623 771.557 C 895.983 817.069 851.069 842.088 808.878 858.471 C 789.134 866.138 767.824 869.969 747.886 876.729 C 758.957 926.119 811.637 908.995 843.601 893.353 C 856.947 886.822 877.755 865.837 889.166 881.182 C 900.704 896.697 905.219 912.784 903.399 931.87 C 899.201 937.892 896.428 941.431 891.628 946.992 C 842.621 995.894 740.449 1011.88 684.381 966.473 C 614.807 910.127 641.836 788.353 692.228 728.204 C 723.612 690.745 762.961 668.289 811.582 663.443 z"/>
<path transform="translate(0,0)" fill="rgb(225,174,24)" d="M 805.759 733.249 C 812.615 733.891 823.287 737.646 823.62 744.974 C 825.051 776.415 786.66 793.642 764.246 797.814 C 759.027 798.56 753.802 799.263 748.572 799.924 C 755.094 771.849 774.736 738.076 805.759 733.249 z"/>
<path transform="translate(0,0)" fill="rgb(250,206,46)" d="M 1787.75 651.471 C 1827.73 649.823 1882.59 654.882 1909.18 692.446 C 1918.46 705.545 1886.56 744.537 1872.77 751.653 C 1850.11 743.947 1830.33 729.034 1803.42 729.916 C 1796.25 730.151 1786.17 729.282 1780.53 735.193 C 1778.43 737.384 1776.78 742.723 1777.36 745.325 C 1781.59 764.335 1825.51 776.545 1841.77 787.23 C 1853.79 794.241 1866.6 801.575 1876.88 811.174 C 1914.49 846.311 1905.9 910.292 1872.29 945.069 C 1842.53 975.863 1806.03 982.946 1764.49 983.8 C 1725 982.691 1676.7 971.573 1646.8 943.247 C 1642.46 939.223 1638.29 931.928 1638.92 925.65 C 1640.4 910.921 1667.23 875.848 1681.91 875.578 C 1690.23 875.425 1713.67 889.224 1723.94 893.253 C 1735.1 897.565 1746.82 900.243 1758.75 901.204 C 1768.42 901.945 1777.6 901.229 1785.14 894.407 C 1805.96 875.558 1765.73 860.67 1753.07 853.95 C 1747.11 850.782 1740.93 848.168 1735 844.935 C 1726.01 840 1717.39 834.421 1709.21 828.242 C 1689.44 813.093 1676.61 796.162 1673.36 770.999 C 1670 745.523 1677 719.763 1692.78 699.486 C 1716.21 669.226 1751.11 656.375 1787.75 651.471 z"/>
<path transform="translate(0,0)" fill="rgb(250,206,46)" d="M 626.467 675.33 C 637.518 674.916 652.066 673.3 659.19 684.365 C 666.189 695.237 663.386 709.242 660.214 720.968 C 657.457 730.021 654.81 739.53 651.39 748.355 C 645.926 762.454 643.108 778.254 629.704 786.853 C 620.898 785.177 611.858 781.6 602.973 780.996 C 590.177 780.126 578.27 787.227 569.803 796.301 C 523.583 845.836 532.391 958.709 507.502 979.36 C 493.841 990.694 455.777 998.855 438.699 996.684 C 430.323 995.619 425.506 991.766 420.565 985.184 C 417.264 968.932 426.788 931.207 430.373 913.275 C 436.718 882.229 442.639 851.097 448.136 819.89 C 450.116 808.771 454.989 786.753 453.287 776.504 C 449.527 756.86 431.171 734.178 441.836 713.38 C 454.477 688.729 508.712 674.296 533.519 684.081 C 545.078 688.64 548.216 711.748 551.581 722.922 C 582.225 700.892 583.874 684.236 626.467 675.33 z"/>
<path transform="translate(0,0)" fill="rgb(250,206,46)" d="M 1644.75 524.459 C 1651.12 523.848 1665.05 525.613 1670.59 528.516 C 1736.72 563.159 1672.75 675.607 1627.33 694.384 C 1611.61 697.98 1604.69 698.45 1593.82 685.572 C 1588.43 658.087 1606.1 651.464 1607.94 627.938 C 1607.44 611.303 1592.04 602.359 1591.49 584.988 C 1590.35 548.764 1609.1 527.843 1644.75 524.459 z"/>
<path transform="translate(0,0)" fill="rgb(250,206,46)" d="M 795.283 889.318 C 790.238 891.153 783.993 892.235 778.926 890.026 L 779.938 888.589 C 784.999 886.515 787.688 886.315 792.994 885.551 L 794.019 886.658 L 795.283 889.318 z"/>
<path transform="translate(0,0)" fill="rgb(225,174,24)" d="M 1452.48 1202.64 C 1469.58 1176.88 1480.95 1161.3 1510.08 1146.8 C 1554.35 1125.56 1611.06 1123.94 1657.63 1138.58 C 1689.43 1148.57 1738.78 1175.95 1721.56 1217.28 C 1711.25 1242.02 1689.23 1266.71 1664.41 1278.01 L 1662.43 1279.32 C 1671.69 1292.61 1697.35 1302.14 1704.85 1324.97 C 1764.7 1507.07 1513.93 1568 1411.4 1451.23 C 1404.49 1457.92 1397.91 1463.71 1390.5 1469.95 C 1328.86 1521.88 1231.2 1528.15 1170.4 1471.55 C 1163.28 1464.92 1156.93 1455.7 1150.74 1447.89 C 1143.04 1455.1 1135.26 1465.61 1127.45 1471.64 C 1068.55 1517.12 981.276 1528.39 919.45 1481.99 C 910.7 1475.43 902.132 1466.75 893.994 1459.31 C 873.894 1490.66 833.713 1516.05 795.19 1509 C 775.32 1505.36 766.613 1496.17 751.556 1483.86 C 750.547 1484.46 748.916 1485.42 747.993 1486.09 C 715.842 1509.44 670.778 1520.22 631.056 1511.34 C 605.232 1505.49 582.846 1489.5 568.935 1466.97 C 551.898 1439.6 550.958 1403.03 558.676 1372.62 C 568.904 1332.32 590.74 1306.79 625.298 1285.48 C 592.417 1257.48 581.207 1226.61 609.331 1189.52 C 633.27 1157.96 694.252 1139.82 732.128 1135.14 C 771.51 1130.28 824.927 1138.67 856.821 1163.88 C 882.573 1185 887.985 1210.8 891.433 1242.07 C 918.338 1195.32 940.908 1167.68 993.014 1145.62 C 1033.24 1128.59 1083.62 1126.88 1123.64 1145.04 C 1151.7 1157.78 1161.95 1171.61 1172.72 1199.65 C 1184.84 1186.16 1194.86 1173.44 1210.3 1162.79 C 1249.99 1135.39 1306.96 1125.94 1354.12 1132.8 C 1381.9 1136.84 1413.74 1153.17 1431.74 1174.29 C 1438.11 1181.76 1446.58 1194.35 1452.48 1202.64 z M 1290.95 1379.16 C 1321.7 1358.34 1338.98 1261.54 1305.43 1259.03 C 1287.13 1265.34 1281 1298.24 1276.56 1314.85 C 1272.98 1328.27 1266.56 1381.26 1290.95 1379.16 z M 1125.73 1348.53 C 1127.18 1322.95 1131.75 1307.97 1135.2 1283.57 C 1116.23 1292.27 1104.73 1296.21 1083.33 1290.08 C 1065.15 1284.87 1060.22 1261.62 1044.12 1263.16 C 1023.71 1276.54 1018.78 1297.31 1012.82 1320.67 C 1006.22 1346.5 1008.88 1398.88 1049.91 1372.83 C 1061.13 1365.71 1070.2 1353.79 1082.87 1346.9 C 1098.2 1340.63 1110.77 1342.6 1125.73 1348.53 z M 1459.1 1362.08 C 1487.56 1353.24 1486.43 1359.95 1512.83 1369.52 C 1516.23 1370.13 1518.37 1370.7 1521.85 1370.46 C 1514.78 1363.65 1499.21 1355.35 1490.65 1349.43 C 1480.71 1342.56 1475.02 1337.28 1466.48 1328.69 C 1463.86 1339.46 1461.5 1351.19 1459.1 1362.08 z"/>
<path transform="translate(0,0)" fill="rgb(250,206,46)" d="M 1662.43 1279.32 L 1660.08 1279.93 C 1655.43 1277.79 1602.26 1251.41 1601.49 1250.53 L 1603.09 1250.18 C 1621.72 1255.42 1634.12 1263.27 1651.3 1271.68 C 1656.59 1274.27 1659.82 1274.25 1664.41 1278.01 L 1662.43 1279.32 z"/>
<path transform="translate(0,0)" fill="rgb(250,206,46)" d="M 1304.66 1151.46 C 1380.39 1148.25 1434.5 1183.65 1443.59 1261.65 C 1456.15 1369.3 1403.77 1473.65 1289.23 1487.7 C 1129.62 1496.19 1117.12 1323.55 1186.89 1219.77 C 1215.85 1176.7 1253.54 1156.77 1304.66 1151.46 z M 1290.95 1379.16 C 1321.7 1358.34 1338.98 1261.54 1305.43 1259.03 C 1287.13 1265.34 1281 1298.24 1276.56 1314.85 C 1272.98 1328.27 1266.56 1381.26 1290.95 1379.16 z"/>
<path transform="translate(0,0)" fill="rgb(225,174,24)" d="M 1299.15 1239.07 C 1326.25 1237.54 1339.8 1254 1342.69 1279.72 C 1346.75 1315.89 1335.35 1382.76 1296.09 1397.31 C 1280.12 1399.76 1263.29 1394.28 1257.82 1378.02 C 1244.19 1337.47 1255.89 1258.17 1299.15 1239.07 z M 1290.95 1379.16 C 1321.7 1358.34 1338.98 1261.54 1305.43 1259.03 C 1287.13 1265.34 1281 1298.24 1276.56 1314.85 C 1272.98 1328.27 1266.56 1381.26 1290.95 1379.16 z"/>
<path transform="translate(0,0)" fill="rgb(250,206,46)" d="M 741.528 1156.44 C 774.665 1155.42 809.99 1157.99 838.263 1178.68 C 892.537 1218.39 858.496 1309.44 852.675 1364.49 C 851.99 1373.33 849.304 1386.8 850.751 1395.25 C 853.162 1409.34 875.055 1409.42 876.58 1426.25 C 879.555 1459.08 845.913 1481.28 817.179 1486.07 C 789.875 1491.62 776.112 1475.15 758.193 1458.74 C 751.456 1452.56 739.64 1466.15 733.071 1470.26 C 693.397 1495.04 644.27 1502.72 604.682 1473.85 C 590.339 1461.63 580.376 1446.47 577.224 1427.56 C 563.037 1342.47 628.535 1293.7 704.702 1279.43 C 723.02 1276 742.225 1274.1 760.497 1270.48 C 776.183 1221.77 709.803 1240.41 687.103 1249.46 C 667.871 1257.12 648.828 1275.77 628.899 1259.53 C 610.196 1244.29 614.257 1216.38 629.395 1200.07 C 655.901 1170.67 703.648 1159.62 741.528 1156.44 z"/>
<path transform="translate(0,0)" fill="rgb(225,174,24)" d="M 741.198 1344.38 C 744.381 1343.69 752.765 1343.78 756.401 1343.72 C 755.278 1376.89 734.77 1407.63 698.342 1406.24 C 690.443 1403.95 684.425 1401.16 682.991 1392.27 C 681.702 1383.84 683.955 1375.25 689.217 1368.53 C 700.234 1354.28 723.718 1346.41 741.198 1344.38 z"/>
<path transform="translate(0,0)" fill="rgb(250,206,46)" d="M 727.864 1368.06 L 728.707 1369.11 C 727.992 1377.02 715.225 1384.96 708.281 1387.41 L 707.177 1386.18 C 706.077 1377.34 720.923 1371.24 727.864 1368.06 z"/>
<path transform="translate(0,0)" fill="rgb(250,206,46)" d="M 1577.55 1151.43 C 1612.85 1149.73 1672.67 1157.62 1696.01 1190.89 C 1707.04 1206.6 1676.46 1245.57 1660.03 1253.76 C 1636.83 1246.63 1619.65 1230.33 1591.41 1231.37 C 1584.3 1231.19 1575.8 1230.84 1570.45 1236.31 C 1564.64 1242.24 1566.39 1249.63 1572.25 1254.61 C 1582.13 1263.01 1594.36 1268.15 1605.72 1273.9 C 1632.04 1287.23 1668.43 1303.62 1681.04 1332.43 C 1696.78 1368.39 1688.43 1417.8 1661.21 1446.36 C 1634.19 1475.48 1596.54 1484.44 1558.25 1486.57 C 1522.3 1488.33 1458.73 1474.33 1435.24 1442.2 C 1425.39 1428.72 1453.65 1397.55 1463.23 1389.16 C 1468.59 1384.47 1472.72 1381.68 1479.64 1378.51 C 1504.37 1385.8 1548.05 1415.6 1576.66 1394.62 C 1578.71 1393.12 1580.41 1383.84 1579.33 1381.81 C 1570.35 1364.97 1538.99 1352.67 1522.1 1343.36 C 1515.21 1339.6 1508.58 1335.38 1502.24 1330.75 C 1481.55 1315.37 1467.14 1297.83 1463.49 1271.77 C 1460.04 1245.33 1467.27 1218.6 1483.58 1197.51 C 1507.05 1166.7 1540.73 1156.19 1577.55 1151.43 z"/>
<path transform="translate(0,0)" fill="rgb(250,206,46)" d="M 1045.01 1154.43 C 1076.35 1152.59 1107.93 1156.35 1132.64 1176.9 C 1157.55 1197.63 1160.03 1229.5 1137.52 1252.64 C 1128.37 1262.05 1117.64 1270.85 1103.83 1271.47 C 1086.9 1272.59 1079.81 1259.47 1069.04 1250.14 C 1049.99 1235 1030.66 1244.61 1016.35 1259.77 C 991.589 1285.98 974.097 1364.12 1005.96 1390.05 C 1012.47 1395.36 1020.46 1398.53 1028.84 1399.12 C 1061.06 1401.42 1072.11 1370.4 1099.31 1365.47 C 1113.53 1362.88 1127.9 1385.74 1130.97 1397.74 C 1133.05 1405.84 1134.55 1412.96 1134.9 1422.1 C 1130.94 1455.44 1064.4 1485.03 1035.32 1488.28 C 839.11 1510.26 850.876 1245.01 984.536 1173.2 C 1006.67 1161.31 1020.54 1157.57 1045.01 1154.43 z"/>
<path transform="translate(0,0)" fill="rgb(250,206,46)" d="M 1521.85 1370.46 L 1522.96 1369.42 C 1531.15 1372.43 1542.73 1378.32 1550.29 1382.73 C 1543.14 1381.56 1518.2 1375.36 1512.55 1371.43 L 1512.83 1369.52 C 1516.23 1370.13 1518.37 1370.7 1521.85 1370.46 z"/>
</svg>